<?xml version="1.0" encoding="utf-8"?>
<!-- Generator: Adobe Illustrator 19.2.0, SVG Export Plug-In . SVG Version: 6.00 Build 0)  -->
<svg version="1.1" id="Capa_1" xmlns="http://www.w3.org/2000/svg" xmlns:xlink="http://www.w3.org/1999/xlink" x="0px" y="0px"
	 viewBox="0 0 316.7 56.9" style="enable-background:new 0 0 316.7 56.9;" xml:space="preserve">
<style type="text/css">
	.st0{fill:#3D9CD7;}
	.st1{fill:#005FA6;}
	.st2{fill:url(#SVGID_1_);}
	.st3{opacity:0.41;fill:url(#SVGID_2_);}
</style>
<g>
	<path class="st0" d="M70.2,42.8v-3.6l1.4-0.1c0.8-0.1,1.3-0.5,1.3-1.2V17.4l-2.5-0.1v-3.7H83c3.3,0,5.8,0.8,7.7,2.3
		c1.8,1.5,2.7,3.8,2.7,6.9c0,3.1-1,5.5-3.1,7.2c-2.1,1.7-4.8,2.6-8.3,2.6h-3.7v6.4l4.2,0.1v3.7H70.2z M78.3,28.3h3.2
		c4.3,0,6.4-1.7,6.4-5.2c0-2.1-0.5-3.5-1.6-4.2c-1.1-0.7-2.8-1-5.2-1h-2.7V28.3z"/>
	<path class="st0" d="M98.7,37.8V25.7c0-0.5-0.1-0.8-0.2-1c-0.2-0.2-0.4-0.3-0.9-0.3l-1.8-0.1v-3.6h7.4V24c0.5-1.1,1.3-2.1,2.5-2.8
		c1.1-0.7,2.4-1.1,3.8-1.1c1.4,0,2.8,0.3,4.2,1v6.5l-4.1,0.3v-2c0-0.6-0.1-1-0.4-1.1c-0.3-0.1-0.7-0.2-1.2-0.2
		c-1.2,0-2.1,0.4-2.9,1.3c-0.7,0.8-1.1,1.9-1.1,3.2v10.2l3.8,0.2v3.5H95.9v-3.3l1.4-0.1c0.4-0.1,0.8-0.2,1-0.4
		C98.6,38.7,98.7,38.4,98.7,37.8z"/>
	<path class="st0" d="M114,31.7c0-2.2,0.3-4,1-5.6c0.6-1.6,1.5-2.8,2.6-3.7c2.1-1.6,4.4-2.4,6.9-2.4c1.8,0,3.2,0.3,4.5,0.9
		c1.2,0.6,2.2,1.2,2.9,2c0.7,0.7,1.3,1.8,1.8,3.2c0.5,1.4,0.7,3.1,0.7,5c0,4-1,7.1-2.9,9.2c-2,2.1-4.5,3.1-7.5,3.1
		c-3.1,0-5.5-1-7.2-3C114.9,38.5,114,35.6,114,31.7z M124.1,39.6c3.2,0,4.8-2.6,4.8-7.7c0-2.6-0.4-4.6-1.1-5.9c-0.7-1.3-1.9-2-3.6-2
		c-1.7,0-2.9,0.6-3.7,1.9c-0.8,1.3-1.2,3-1.2,5.3c0,4.1,0.8,6.7,2.3,7.8C122.3,39.3,123.1,39.6,124.1,39.6z"/>
	<path class="st0" d="M152.1,41.9v-3.3c-1.6,2.3-4,3.4-7.1,3.4c-4.5,0-6.8-2.5-6.8-7.6v-8.8c0-0.8-0.4-1.2-1.1-1.2l-1.4-0.1v-3.6
		h7.7v12.6c0,1.6,0.2,2.7,0.7,3.5c0.4,0.8,1.3,1.2,2.7,1.2c1.4,0,2.5-0.4,3.3-1.3c0.8-0.8,1.3-1.9,1.3-3.1v-8c0-0.5-0.1-0.8-0.2-1
		c-0.2-0.2-0.4-0.3-0.9-0.3l-1.4-0.1v-3.6h7.7v21.3c0,3.5-0.9,6.1-2.6,7.8c-1.7,1.6-4.3,2.5-7.8,2.5c-3.5,0-6.2-0.5-8.1-1.4v-6.1
		l4.2-0.3v2.1c0,0.8,0.4,1.3,1.1,1.6c0.7,0.3,1.7,0.4,3,0.4C150.2,48.4,152.1,46.2,152.1,41.9z"/>
	<path class="st0" d="M169.9,20c2.2,0,3.9,0.5,5.2,1.6c1.3,1.1,1.9,2.6,1.9,4.5c0,1.3-0.3,2.4-0.8,3.4c-0.6,1-1.2,1.8-2.1,2.3
		c-0.8,0.6-1.8,1-3,1.4c-2,0.6-4.2,0.9-6.6,0.9c0.1,1.6,0.6,2.8,1.5,3.8c0.9,1,2.2,1.4,4,1.4c1.8,0,3.6-0.6,5.4-1.9l1.7,3.6
		c-0.6,0.5-1.6,1.1-3,1.6c-1.4,0.6-3,0.8-4.8,0.8c-3.6,0-6.2-1-7.9-3c-1.7-2-2.5-4.7-2.5-8.2s1-6.4,2.9-8.7
		C163.8,21.2,166.5,20,169.9,20z M167.9,30c1.1-0.2,2.1-0.6,3-1.3c0.9-0.7,1.4-1.4,1.4-2.4c0-1.8-0.9-2.7-2.6-2.7
		c-1.6,0-2.9,0.7-3.8,2c-0.9,1.3-1.4,2.9-1.4,4.7C165.6,30.3,166.8,30.2,167.9,30z"/>
	<path class="st0" d="M185.5,37.3c0.9,1.4,2.3,2.1,4.1,2.1c1.8,0,3.5-0.6,5.2-1.9l1.9,3.4c-2.1,1.7-4.7,2.5-7.8,2.5
		c-3.1,0-5.6-1-7.4-3c-1.8-2-2.7-4.9-2.7-8.8c0-3.9,1-6.8,3.1-8.7c2.1-1.9,4.4-2.9,7-2.9c2.6,0,5,0.6,7.2,1.8v5.7l-4,0.3v-2.1
		c0-0.8-0.3-1.3-0.9-1.5c-0.6-0.2-1.2-0.3-1.8-0.3c-3.5,0-5.3,2.5-5.3,7.5C184.1,34,184.6,35.9,185.5,37.3z"/>
	<path class="st0" d="M203,16h2.9v4.7h5.8l-0.4,3.7h-5.4v11.6c0,1.3,0.2,2.2,0.7,2.7c0.5,0.5,1.2,0.8,2.2,0.8c1,0,2-0.3,3-0.9
		l1.3,3.4c-1.5,1-3.3,1.5-5.6,1.5c-1.3,0-2.4-0.2-3.3-0.5c-0.9-0.3-1.6-0.7-2-1.1c-0.4-0.4-0.8-1-1-1.8c-0.2-0.8-0.4-1.4-0.4-1.9
		c0-0.5,0-1.1,0-2V24.4h-3.1l0.4-3.2c1.4-0.1,2.4-0.6,3.1-1.5C201.8,18.8,202.5,17.6,203,16z"/>
	<path class="st0" d="M212.5,31.7c0-2.2,0.3-4,1-5.6c0.6-1.6,1.5-2.8,2.6-3.7c2.1-1.6,4.4-2.4,6.9-2.4c1.8,0,3.2,0.3,4.5,0.9
		c1.2,0.6,2.2,1.2,2.9,2c0.7,0.7,1.3,1.8,1.8,3.2c0.5,1.4,0.7,3.1,0.7,5c0,4-1,7.1-2.9,9.2c-2,2.1-4.5,3.1-7.5,3.1
		c-3.1,0-5.5-1-7.2-3C213.4,38.5,212.5,35.6,212.5,31.7z M222.6,39.6c3.2,0,4.8-2.6,4.8-7.7c0-2.6-0.4-4.6-1.1-5.9
		c-0.7-1.3-1.9-2-3.6-2c-1.7,0-2.9,0.6-3.7,1.9c-0.8,1.3-1.2,3-1.2,5.3c0,4.1,0.8,6.7,2.3,7.8C220.8,39.3,221.6,39.6,222.6,39.6z"/>
	<path class="st1" d="M234.5,13.6h12.4c6.3,0,9.5,2.4,9.5,7.3c0,2.7-1.3,4.7-4,6.1c1.7,0.4,3.1,1.2,4.1,2.4c1,1.2,1.5,2.7,1.5,4.6
		c0,2.8-1,5-2.9,6.5c-1.9,1.5-4.7,2.2-8.4,2.2h-12.3v-3.6l1.4-0.1c0.9-0.1,1.3-0.5,1.3-1.2V17.4l-2.5-0.1V13.6z M242.3,17.6v7.9h3.3
		c1.8,0,3.2-0.4,4-1.1c0.9-0.7,1.3-1.8,1.3-3.1c0-1.3-0.4-2.3-1.3-2.9c-0.9-0.6-2.1-0.8-3.7-0.8H242.3z M242.3,29.5v9.2h4.1
		c3.8,0,5.7-1.6,5.7-4.7c0-1.5-0.5-2.6-1.4-3.4c-0.9-0.8-2.3-1.2-4.1-1.2H242.3z"/>
	<path class="st1" d="M270.4,20c2.2,0,3.9,0.5,5.2,1.6c1.3,1.1,1.9,2.6,1.9,4.5c0,1.3-0.3,2.4-0.8,3.4c-0.6,1-1.2,1.8-2.1,2.3
		c-0.8,0.6-1.8,1-3,1.4c-2,0.6-4.2,0.9-6.6,0.9c0.1,1.6,0.6,2.8,1.4,3.8c0.9,1,2.2,1.4,4,1.4c1.8,0,3.6-0.6,5.4-1.9l1.7,3.6
		c-0.6,0.5-1.6,1.1-3,1.6c-1.4,0.6-3,0.8-4.8,0.8c-3.6,0-6.2-1-7.9-3c-1.7-2-2.5-4.7-2.5-8.2s1-6.4,2.9-8.7
		C264.3,21.2,266.9,20,270.4,20z M268.4,30c1.1-0.2,2.1-0.6,3-1.3c0.9-0.7,1.4-1.4,1.4-2.4c0-1.8-0.9-2.7-2.6-2.7
		c-1.6,0-2.9,0.7-3.8,2c-0.9,1.3-1.4,2.9-1.4,4.7C266.1,30.3,267.3,30.2,268.4,30z"/>
	<path class="st1" d="M284.2,16h2.9v4.7h5.8l-0.4,3.7H287v11.6c0,1.3,0.2,2.2,0.7,2.7c0.5,0.5,1.2,0.8,2.2,0.8c1,0,2-0.3,3-0.9
		l1.3,3.4c-1.5,1-3.3,1.5-5.6,1.5c-1.3,0-2.4-0.2-3.3-0.5c-0.9-0.3-1.6-0.7-2-1.1c-0.4-0.4-0.8-1-1-1.8c-0.2-0.8-0.4-1.4-0.4-1.9
		c0-0.5,0-1.1,0-2V24.4h-3.1l0.4-3.2c1.4-0.1,2.4-0.6,3.1-1.5C282.9,18.8,283.6,17.6,284.2,16z"/>
	<path class="st1" d="M314.2,21.5v16.3c0,0.5,0.1,0.8,0.2,1c0.2,0.2,0.4,0.3,0.9,0.3l1.4,0.1v3.5h-7v-2.5l-0.1,0
		c-1.5,2.1-3.5,3.2-6,3.2c-3,0-5.2-1-6.6-2.9c-1.4-1.9-2.2-4.5-2.2-7.8c0-4,1-7.1,2.9-9.3c1.9-2.2,4.8-3.3,8.7-3.3
		C308.9,20,311.5,20.5,314.2,21.5z M309.1,35.8V24.4c-0.8-0.4-1.9-0.6-3.4-0.6c-2,0-3.4,0.8-4.3,2.4c-0.9,1.6-1.3,3.7-1.3,6.3
		c0,4.7,1.5,7.1,4.6,7.1c1.3,0,2.3-0.4,3.2-1.2C308.7,37.7,309.1,36.8,309.1,35.8z"/>
</g>
<g>
	<g>
		<g>
			<path class="st1" d="M25.7,0.5c-0.5-0.3-1.4-0.3-1.9,0L7.4,9.9c-0.5,0.3-0.9,0.5-0.9,0.5c0,0,0,0-0.1,0c0,0-0.1,0-0.1,0
				c0,0-0.4,0.2-0.9,0.5L1,13.6c-0.5,0.3-0.9,1-0.9,1.6L0,41.5c0,0.6,0.4,1.3,0.9,1.6l22.7,13.2c0.5,0.3,1.4,0.3,1.9,0l22.8-13.1
				c0.5-0.3,0.9-1,0.9-1.6l0.1-26.3c0-0.6-0.4-1.3-0.9-1.6L25.7,0.5z M6.4,32.4c0-0.6,0.4-0.8,0.9-0.5l4.7,2.7
				c0.5,0.3,0.9,1,0.9,1.6l0,5.5c0,0.6-0.4,0.8-0.9,0.5l-4.7-2.8c-0.5-0.3-0.9-1-0.9-1.6L6.4,32.4z M20.3,47c-0.5-0.3-0.9-1-0.9-1.6
				l0-12.8c0-0.6-0.4-1.3-0.9-1.6L7.4,24.6c-0.5-0.3-0.9-1-0.9-1.6l0-4c0-0.6,0-1.1,0-1.1c0,0,0.4,0.2,0.9,0.5l16.4,9.5
				c0.5,0.3,0.9,1,0.9,1.6l-0.1,19c0,0.6,0,1.1,0,1.1c0,0,0,0,0,0c0,0-0.5-0.2-1-0.5L20.3,47z M43,38c0,0.6-0.4,1.3-0.9,1.6
				l-10.1,5.8c-0.5,0.3-0.9,0.1-0.9-0.5l0.1-19c0-0.6-0.4-1.3-0.9-1.6l-16.4-9.5c-0.5-0.3-0.5-0.8,0-1.1l10.1-5.8
				c0.5-0.3,1.4-0.3,1.9,0l16.4,9.5c0.5,0.3,0.9,1,0.9,1.6L43,38z"/>
		</g>
	</g>
	<g>
		<g>
			<linearGradient id="SVGID_1_" gradientUnits="userSpaceOnUse" x1="0.3297" y1="42.519" x2="49.0576" y2="14.3859">
				<stop  offset="0" style="stop-color:#3D9CD7"/>
				<stop  offset="1" style="stop-color:#3D9CD7;stop-opacity:0"/>
			</linearGradient>
			<path class="st2" d="M25.7,0.5c-0.5-0.3-1.4-0.3-1.9,0L7.4,9.9c-0.5,0.3-0.9,0.5-0.9,0.5c0,0,0,0-0.1,0c0,0-0.1,0-0.1,0
				c0,0-0.4,0.2-0.9,0.5L1,13.6c-0.5,0.3-0.9,1-0.9,1.6L0,41.5c0,0.6,0.4,1.3,0.9,1.6l22.7,13.2c0.5,0.3,1.4,0.3,1.9,0l22.8-13.1
				c0.5-0.3,0.9-1,0.9-1.6l0.1-26.3c0-0.6-0.4-1.3-0.9-1.6L25.7,0.5z M6.4,32.4c0-0.6,0.4-0.8,0.9-0.5l4.7,2.7
				c0.5,0.3,0.9,1,0.9,1.6l0,5.5c0,0.6-0.4,0.8-0.9,0.5l-4.7-2.8c-0.5-0.3-0.9-1-0.9-1.6L6.4,32.4z M20.3,47c-0.5-0.3-0.9-1-0.9-1.6
				l0-12.8c0-0.6-0.4-1.3-0.9-1.6L7.4,24.6c-0.5-0.3-0.9-1-0.9-1.6l0-4c0-0.6,0-1.1,0-1.1c0,0,0.4,0.2,0.9,0.5l16.4,9.5
				c0.5,0.3,0.9,1,0.9,1.6l-0.1,19c0,0.6,0,1.1,0,1.1c0,0,0,0,0,0c0,0-0.5-0.2-1-0.5L20.3,47z M43,38c0,0.6-0.4,1.3-0.9,1.6
				l-10.1,5.8c-0.5,0.3-0.9,0.1-0.9-0.5l0.1-19c0-0.6-0.4-1.3-0.9-1.6l-16.4-9.5c-0.5-0.3-0.5-0.8,0-1.1l10.1-5.8
				c0.5-0.3,1.4-0.3,1.9,0l16.4,9.5c0.5,0.3,0.9,1,0.9,1.6L43,38z"/>
		</g>
	</g>
	<linearGradient id="SVGID_2_" gradientUnits="userSpaceOnUse" x1="3.900000e-003" y1="20.9813" x2="49.3876" y2="20.9813">
		<stop  offset="0" style="stop-color:#FFFFFF"/>
		<stop  offset="1" style="stop-color:#FFFFFF;stop-opacity:0"/>
	</linearGradient>
	<path class="st3" d="M6.4,37.8l0-5.4c0-0.6,0.4-0.8,0.9-0.5l4.7,2.7c0.1,0,0.2,0.1,0.3,0.1l6.3-3.6c-0.1-0.1-0.1-0.1-0.2-0.2
		l-11-6.4c-0.5-0.3-0.9-1-0.9-1.6l0-4c0-0.6,0-1.1,0-1.1c0,0,0.4,0.2,0.9,0.5l16.4,9.5c0.1,0,0.2,0.1,0.2,0.1l6.4-3.6
		c-0.1,0-0.2-0.1-0.3-0.2l-16.4-9.5c-0.5-0.3-0.5-0.8,0-1.1l10.1-5.8c0.5-0.3,1.4-0.3,1.9,0l16.4,9.5c0.1,0.1,0.2,0.1,0.3,0.2
		l6.4-3.6c-0.1-0.1-0.2-0.1-0.3-0.2L25.7,0.5c-0.5-0.3-1.4-0.3-1.9,0L7.4,9.9c-0.5,0.3-0.9,0.5-0.9,0.5c0,0,0,0-0.1,0
		c0,0-0.1,0-0.1,0c0,0-0.4,0.2-0.9,0.5L1,13.6c-0.5,0.3-0.9,1-0.9,1.6L0,41.4c0,0.1,0,0.2,0,0.2l6.3-3.6C6.3,38,6.4,37.9,6.4,37.8z"
		/>
</g>
</svg>
