<?xml version="1.0" encoding="utf-8"?>
<!-- Generator: Adobe Illustrator 19.2.0, SVG Export Plug-In . SVG Version: 6.00 Build 0)  -->
<svg version="1.1" id="Capa_1" xmlns="http://www.w3.org/2000/svg" xmlns:xlink="http://www.w3.org/1999/xlink" x="0px" y="0px"
	 viewBox="0 0 418.7 200.7" style="enable-background:new 0 0 418.7 200.7;" xml:space="preserve">
<style type="text/css">
	.st0{fill:#3D9CD7;}
	.st1{fill:#005FA6;}
	.st2{fill:url(#SVGID_1_);}
	.st3{opacity:0.49;clip-path:url(#SVGID_3_);}
	.st4{fill:url(#SVGID_4_);}
</style>
<g>
	<g>
		<g>
			<path class="st0" d="M2.7,163.9v-6l2.4-0.2c1.4-0.1,2.1-0.8,2.1-2.1v-34.2L3,121.3v-6.2h21c5.5,0,9.8,1.3,12.8,3.9
				c3.1,2.6,4.6,6.4,4.6,11.6c0,5.1-1.7,9.1-5.2,12c-3.5,2.9-8.1,4.3-13.8,4.3h-6.2v10.7l7.1,0.2v6.2H2.7z M16.2,139.7h5.3
				c7.1,0,10.7-2.9,10.7-8.7c0-3.5-0.9-5.9-2.8-7c-1.8-1.1-4.8-1.7-8.8-1.7h-4.5V139.7z"/>
			<path class="st0" d="M50.3,155.7v-20.3c0-0.8-0.1-1.3-0.4-1.7c-0.3-0.3-0.8-0.5-1.4-0.6l-3.1-0.2v-6h12.4v5.5
				c0.9-1.9,2.3-3.5,4.1-4.7c1.9-1.2,4-1.9,6.4-1.9c2.4,0,4.7,0.5,6.9,1.6v10.9l-6.8,0.5v-3.4c0-1-0.2-1.6-0.7-1.8
				c-0.5-0.2-1.2-0.4-2-0.4c-2,0-3.6,0.7-4.8,2.1c-1.2,1.4-1.9,3.2-1.9,5.3v17l6.4,0.3v5.8H45.7v-5.6l2.4-0.2
				c0.7-0.1,1.3-0.3,1.6-0.6C50.1,157.2,50.3,156.6,50.3,155.7z"/>
			<path class="st0" d="M76,145.4c0-3.6,0.5-6.8,1.6-9.4c1.1-2.7,2.5-4.7,4.3-6.1c3.5-2.6,7.3-4,11.5-4c2.9,0,5.4,0.5,7.5,1.4
				c2,1,3.6,2.1,4.8,3.3c1.2,1.3,2.1,3.1,2.9,5.4c0.8,2.4,1.2,5.2,1.2,8.4c0,6.8-1.6,11.9-4.9,15.4c-3.3,3.5-7.5,5.2-12.6,5.2
				c-5.1,0-9.1-1.7-12-5C77.4,156.8,76,151.9,76,145.4z M92.9,158.6c5.3,0,8-4.3,8-12.9c0-4.4-0.6-7.7-1.8-9.9
				c-1.2-2.3-3.2-3.4-6-3.4c-2.8,0-4.9,1.1-6.2,3.2c-1.3,2.2-2,5.1-2,8.8c0,6.9,1.3,11.2,3.8,13C89.8,158.2,91.2,158.6,92.9,158.6z"
				/>
			<path class="st0" d="M139.6,162.5V157c-2.7,3.8-6.7,5.7-11.9,5.7c-7.6,0-11.4-4.2-11.4-12.7v-14.8c0-1.3-0.6-2-1.8-2.1l-2.3-0.1
				v-6h12.9v21.1c0,2.6,0.4,4.6,1.1,5.9c0.7,1.3,2.2,2,4.6,2c2.3,0,4.1-0.7,5.5-2.1c1.4-1.4,2.1-3.1,2.1-5.1v-13.3
				c0-0.8-0.1-1.4-0.4-1.7c-0.3-0.3-0.7-0.5-1.4-0.5l-2.3-0.1v-6h12.9v35.6c0,5.9-1.4,10.3-4.3,13c-2.9,2.7-7.2,4.1-13,4.1
				c-5.8,0-10.3-0.8-13.6-2.4V167l7-0.6v3.5c0,1.3,0.6,2.2,1.8,2.7c1.2,0.5,2.9,0.7,5.1,0.7C136.5,173.3,139.6,169.7,139.6,162.5z"
				/>
			<path class="st0" d="M169.4,125.9c3.7,0,6.6,0.9,8.7,2.7c2.2,1.8,3.2,4.3,3.2,7.5c0,2.2-0.5,4-1.4,5.7c-0.9,1.6-2.1,2.9-3.5,3.9
				c-1.4,0.9-3,1.7-5,2.3c-3.3,1-7,1.5-11.1,1.5c0.1,2.6,1,4.7,2.4,6.3c1.5,1.6,3.7,2.4,6.8,2.4c3,0,6.1-1.1,9.1-3.2l2.8,5.9
				c-1,0.9-2.6,1.8-5,2.7c-2.3,0.9-5,1.4-8,1.4c-6,0-10.4-1.7-13.2-5c-2.8-3.3-4.2-7.9-4.2-13.6c0-5.8,1.6-10.6,4.8-14.5
				C159.2,127.8,163.7,125.9,169.4,125.9z M166.1,142.7c1.8-0.3,3.4-1,5-2.1c1.5-1.1,2.3-2.4,2.3-3.9c0-3-1.5-4.5-4.4-4.5
				c-2.7,0-4.9,1.1-6.3,3.3c-1.5,2.2-2.3,4.8-2.4,7.8C162.3,143.2,164.3,143,166.1,142.7z"/>
			<path class="st0" d="M195.6,154.8c1.6,2.3,3.8,3.4,6.8,3.4c3,0,5.9-1,8.8-3.2l3.2,5.7c-3.5,2.8-7.8,4.3-13.1,4.3
				c-5.2,0-9.4-1.7-12.4-5c-3-3.3-4.5-8.2-4.5-14.7c0-6.5,1.7-11.3,5.2-14.6c3.5-3.3,7.3-4.9,11.7-4.9c4.3,0,8.4,1,12.1,3v9.6
				l-6.8,0.5v-3.5c0-1.3-0.5-2.1-1.4-2.5c-1-0.3-1.9-0.5-3-0.5c-5.9,0-8.9,4.2-8.9,12.6C193.2,149.2,194,152.5,195.6,154.8z"/>
			<path class="st0" d="M224.9,119.2h4.8v7.8h9.8l-0.7,6.2h-9v19.3c0,2.2,0.4,3.7,1.2,4.5c0.8,0.9,2,1.3,3.6,1.3
				c1.6,0,3.3-0.5,5-1.5l2.2,5.7c-2.5,1.7-5.6,2.6-9.3,2.6c-2.2,0-4.1-0.3-5.6-0.8c-1.5-0.6-2.6-1.2-3.4-1.9c-0.7-0.7-1.3-1.7-1.7-3
				c-0.4-1.3-0.6-2.4-0.7-3.1c0-0.8-0.1-1.9-0.1-3.3v-19.6h-5.2l0.7-5.4c2.3-0.2,4-1,5.2-2.5C222.8,123.9,223.9,121.8,224.9,119.2z"
				/>
			<path class="st0" d="M240.8,145.4c0-3.6,0.5-6.8,1.6-9.4c1.1-2.7,2.5-4.7,4.3-6.1c3.5-2.6,7.3-4,11.5-4c2.9,0,5.4,0.5,7.5,1.4
				c2,1,3.6,2.1,4.8,3.3c1.1,1.3,2.1,3.1,2.9,5.4c0.8,2.4,1.2,5.2,1.2,8.4c0,6.8-1.6,11.9-4.9,15.4c-3.3,3.5-7.5,5.2-12.6,5.2
				c-5.1,0-9.1-1.7-12-5C242.2,156.8,240.8,151.9,240.8,145.4z M257.7,158.6c5.3,0,8-4.3,8-12.9c0-4.4-0.6-7.7-1.8-9.9
				c-1.2-2.3-3.2-3.4-6-3.4c-2.8,0-4.9,1.1-6.2,3.2c-1.3,2.2-2,5.1-2,8.8c0,6.9,1.3,11.2,3.8,13C254.6,158.2,256,158.6,257.7,158.6z
				"/>
			<path class="st1" d="M277.5,115.1h20.7c10.6,0,15.9,4.1,15.9,12.3c0,4.5-2.3,7.9-6.8,10.3c2.9,0.7,5.2,2.1,6.8,4
				c1.6,2,2.5,4.5,2.5,7.6c0,4.8-1.6,8.4-4.8,10.9c-3.2,2.5-7.9,3.7-14,3.7h-20.6v-6l2.4-0.2c1.4-0.1,2.1-0.8,2.1-2.1v-34.2
				l-4.2-0.2V115.1z M290.6,121.8v13.3h5.4c3,0,5.3-0.6,6.7-1.9c1.4-1.2,2.2-3,2.2-5.3c0-2.3-0.7-3.8-2.2-4.8
				c-1.4-0.9-3.5-1.4-6.2-1.4H290.6z M290.6,141.7V157h6.9c6.4,0,9.5-2.6,9.5-7.8c0-2.5-0.8-4.3-2.4-5.6c-1.6-1.3-3.9-2-6.8-2H290.6
				z"/>
			<path class="st1" d="M337.5,125.9c3.7,0,6.6,0.9,8.7,2.7c2.2,1.8,3.2,4.3,3.2,7.5c0,2.2-0.5,4-1.4,5.7c-0.9,1.6-2.1,2.9-3.5,3.9
				c-1.4,0.9-3,1.7-5,2.3c-3.3,1-7,1.5-11.1,1.5c0.1,2.6,0.9,4.7,2.4,6.3c1.5,1.6,3.7,2.4,6.8,2.4c3,0,6.1-1.1,9.1-3.2l2.8,5.9
				c-1,0.9-2.6,1.8-5,2.7c-2.3,0.9-5,1.4-8,1.4c-6,0-10.4-1.7-13.1-5c-2.8-3.3-4.2-7.9-4.2-13.6c0-5.8,1.6-10.6,4.8-14.5
				C327.3,127.8,331.8,125.9,337.5,125.9z M334.2,142.7c1.8-0.3,3.4-1,5-2.1c1.5-1.1,2.3-2.4,2.3-3.9c0-3-1.5-4.5-4.4-4.5
				c-2.7,0-4.9,1.1-6.3,3.3c-1.5,2.2-2.3,4.8-2.4,7.8C330.4,143.2,332.4,143,334.2,142.7z"/>
			<path class="st1" d="M360.6,119.2h4.8v7.8h9.8l-0.7,6.2h-9v19.3c0,2.2,0.4,3.7,1.2,4.5c0.8,0.9,2,1.3,3.6,1.3
				c1.6,0,3.3-0.5,5-1.5l2.2,5.7c-2.5,1.7-5.6,2.6-9.3,2.6c-2.2,0-4.1-0.3-5.6-0.8c-1.5-0.6-2.6-1.2-3.4-1.9c-0.7-0.7-1.3-1.7-1.7-3
				c-0.4-1.3-0.6-2.4-0.7-3.1c-0.1-0.8-0.1-1.9-0.1-3.3v-19.6h-5.2l0.7-5.4c2.3-0.2,4-1,5.2-2.5
				C358.5,123.9,359.6,121.8,360.6,119.2z"/>
			<path class="st1" d="M410.9,128.5v27.3c0,0.8,0.1,1.3,0.4,1.6c0.3,0.3,0.7,0.5,1.4,0.5l2.4,0.1v5.9h-11.7v-4.3l-0.2-0.1
				c-2.4,3.5-5.8,5.3-10.1,5.3c-5,0-8.7-1.6-11.1-4.8c-2.4-3.2-3.6-7.5-3.6-13.1c0-6.7,1.6-11.9,4.8-15.6c3.2-3.7,8.1-5.6,14.5-5.6
				C402,125.9,406.4,126.7,410.9,128.5z M402.4,152.3v-19c-1.4-0.6-3.3-1-5.7-1c-3.3,0-5.7,1.3-7.1,4c-1.5,2.6-2.2,6.2-2.2,10.5
				c0,7.9,2.6,11.9,7.6,11.9c2.2,0,3.9-0.7,5.3-1.9C401.7,155.4,402.4,153.9,402.4,152.3z"/>
		</g>
		<g>
			<g>
				<g>
					<path class="st1" d="M209.3,3.2c-0.9-0.5-2.3-0.5-3.1,0l-27.4,15.7c-0.9,0.5-1.6,0.9-1.6,0.9c0,0,0,0-0.1,0
						c0,0-0.1,0.1-0.1,0.1c0,0-0.7,0.4-1.6,0.9l-7.3,4.2c-0.9,0.5-1.6,1.7-1.6,2.7l-0.2,43.8c0,1,0.7,2.2,1.6,2.7l37.9,22
						c0.9,0.5,2.3,0.5,3.1,0l38-21.8c0.9-0.5,1.6-1.7,1.6-2.7l0.2-43.8c0-1-0.7-2.2-1.6-2.7L209.3,3.2z M177,56.4
						c0-1,0.7-1.4,1.6-0.9l7.9,4.6c0.9,0.5,1.6,1.7,1.6,2.7l0,9.1c0,1-0.7,1.4-1.6,0.9l-7.9-4.6c-0.9-0.5-1.6-1.7-1.6-2.7L177,56.4z
						 M200.1,80.7c-0.9-0.5-1.6-1.7-1.6-2.7l0.1-21.3c0-1-0.7-2.2-1.6-2.7l-18.5-10.7c-0.9-0.5-1.6-1.7-1.6-2.7l0-6.7
						c0-1,0-1.8,0-1.8c0,0,0.7,0.4,1.6,0.9L206,48.8c0.9,0.5,1.6,1.7,1.6,2.7l-0.1,31.6c0,1,0,1.8,0,1.8c0,0,0,0,0,0
						c0,0-0.8-0.4-1.6-0.9L200.1,80.7z M238,65.7c0,1-0.7,2.2-1.6,2.7L219.6,78c-0.9,0.5-1.6,0.1-1.6-0.9l0.1-31.6
						c0-1-0.7-2.2-1.6-2.7l-27.3-15.9c-0.9-0.5-0.9-1.3,0-1.8l16.8-9.6c0.9-0.5,2.3-0.5,3.1,0l27.3,15.9c0.9,0.5,1.6,1.7,1.6,2.7
						L238,65.7z"/>
				</g>
			</g>
			<g>
				<g>
					<linearGradient id="SVGID_1_" gradientUnits="userSpaceOnUse" x1="166.3587" y1="49.7493" x2="248.7068" y2="49.7493">
						<stop  offset="0" style="stop-color:#3D9CD7"/>
						<stop  offset="1" style="stop-color:#3D9CD7;stop-opacity:0"/>
					</linearGradient>
					<path class="st2" d="M209.3,3.2c-0.9-0.5-2.3-0.5-3.1,0l-27.4,15.7c-0.9,0.5-1.6,0.9-1.6,0.9c0,0,0,0-0.1,0
						c0,0-0.1,0.1-0.1,0.1c0,0-0.7,0.4-1.6,0.9l-7.3,4.2c-0.9,0.5-1.6,1.7-1.6,2.7l-0.2,43.8c0,1,0.7,2.2,1.6,2.7l37.9,22
						c0.9,0.5,2.3,0.5,3.1,0l38-21.8c0.9-0.5,1.6-1.7,1.6-2.7l0.2-43.8c0-1-0.7-2.2-1.6-2.7L209.3,3.2z M177,56.4
						c0-1,0.7-1.4,1.6-0.9l7.9,4.6c0.9,0.5,1.6,1.7,1.6,2.7l0,9.1c0,1-0.7,1.4-1.6,0.9l-7.9-4.6c-0.9-0.5-1.6-1.7-1.6-2.7L177,56.4z
						 M200.1,80.7c-0.9-0.5-1.6-1.7-1.6-2.7l0.1-21.3c0-1-0.7-2.2-1.6-2.7l-18.5-10.7c-0.9-0.5-1.6-1.7-1.6-2.7l0-6.7
						c0-1,0-1.8,0-1.8c0,0,0.7,0.4,1.6,0.9L206,48.8c0.9,0.5,1.6,1.7,1.6,2.7l-0.1,31.6c0,1,0,1.8,0,1.8c0,0,0,0,0,0
						c0,0-0.8-0.4-1.6-0.9L200.1,80.7z M238,65.7c0,1-0.7,2.2-1.6,2.7L219.6,78c-0.9,0.5-1.6,0.1-1.6-0.9l0.1-31.6
						c0-1-0.7-2.2-1.6-2.7l-27.3-15.9c-0.9-0.5-0.9-1.3,0-1.8l16.8-9.6c0.9-0.5,2.3-0.5,3.1,0l27.3,15.9c0.9,0.5,1.6,1.7,1.6,2.7
						L238,65.7z"/>
				</g>
			</g>
			<g>
				<defs>
					<polygon id="SVGID_2_" points="252.1,24.5 165.1,73.9 165.1,22.7 207.9,0 					"/>
				</defs>
				<clipPath id="SVGID_3_">
					<use xlink:href="#SVGID_2_"  style="overflow:visible;"/>
				</clipPath>
				<g class="st3">
					<g>
						<linearGradient id="SVGID_4_" gradientUnits="userSpaceOnUse" x1="166.3587" y1="49.7493" x2="248.7068" y2="49.7493">
							<stop  offset="0" style="stop-color:#FFFFFF;stop-opacity:0.51"/>
							<stop  offset="1" style="stop-color:#FFFFFF;stop-opacity:0"/>
						</linearGradient>
						<path class="st4" d="M209.3,3.2c-0.9-0.5-2.3-0.5-3.1,0l-27.4,15.7c-0.9,0.5-1.6,0.9-1.6,0.9c0,0,0,0-0.1,0
							c0,0-0.1,0.1-0.1,0.1c0,0-0.7,0.4-1.6,0.9l-7.3,4.2c-0.9,0.5-1.6,1.7-1.6,2.7l-0.2,43.8c0,1,0.7,2.2,1.6,2.7l37.9,22
							c0.9,0.5,2.3,0.5,3.1,0l38-21.8c0.9-0.5,1.6-1.7,1.6-2.7l0.2-43.8c0-1-0.7-2.2-1.6-2.7L209.3,3.2z"/>
					</g>
				</g>
			</g>
		</g>
	</g>
	<g>
		<g>
			<path class="st0" d="M157.6,186.2c0.6,0,1.1-0.2,1.4-0.5c0.4-0.4,0.6-0.9,0.6-1.6h1.7c0,1-0.4,1.9-1.1,2.6c-0.7,0.7-1.6,1-2.6,1
				c-1.4,0-2.4-0.4-3.1-1.3c-0.7-0.8-1.1-2.1-1.1-3.8v-1.2c0-1.6,0.4-2.9,1.1-3.7c0.7-0.9,1.7-1.3,3.1-1.3c1.1,0,2,0.3,2.7,1.1
				c0.7,0.7,1,1.7,1,2.9h-1.7c0-0.8-0.2-1.4-0.6-1.8c-0.3-0.4-0.8-0.6-1.4-0.6c-0.8,0-1.4,0.3-1.8,0.8c-0.4,0.5-0.6,1.4-0.6,2.6v1.4
				c0,1.3,0.2,2.2,0.6,2.7C156.2,185.9,156.8,186.2,157.6,186.2z"/>
			<path class="st0" d="M162.8,181.5c0-1.6,0.4-2.8,1.2-3.7c0.8-0.9,1.8-1.4,3.1-1.4c1.3,0,2.3,0.4,3.1,1.3c0.8,0.9,1.2,2.1,1.2,3.7
				v1.1c0,1.6-0.4,2.8-1.2,3.7c-0.8,0.9-1.8,1.4-3.1,1.4c-1.3,0-2.3-0.4-3-1.3c-0.8-0.9-1.2-2.1-1.2-3.6V181.5z M164.6,182.6
				c0,1.1,0.2,2,0.7,2.6c0.4,0.6,1,1,1.8,1c1.6,0,2.4-1.1,2.4-3.4v-1.2c0-1.1-0.2-2-0.7-2.6c-0.4-0.6-1-1-1.8-1
				c-0.7,0-1.3,0.3-1.8,1c-0.4,0.6-0.7,1.5-0.7,2.6V182.6z"/>
			<path class="st0" d="M175.1,176.6l0,1c0.7-0.8,1.5-1.2,2.6-1.2c1.2,0,2.1,0.5,2.6,1.6c0.7-1,1.6-1.6,2.9-1.6c2,0,3,1.2,3.1,3.7
				v7.3h-1.8v-7.1c0-0.8-0.1-1.4-0.4-1.8c-0.3-0.4-0.8-0.6-1.4-0.6c-0.5,0-1,0.2-1.3,0.6c-0.3,0.4-0.5,0.9-0.6,1.6v7.3H179v-7.2
				c0-1.5-0.6-2.3-1.8-2.3c-0.9,0-1.5,0.4-1.9,1.3v8.1h-1.8v-10.8H175.1z"/>
			<path class="st0" d="M196.8,182.6c0,1.7-0.3,3-0.9,3.8c-0.6,0.8-1.5,1.3-2.6,1.3c-1.1,0-1.9-0.4-2.5-1.2v5.2h-1.8v-15h1.6
				l0.1,1.2c0.6-0.9,1.5-1.4,2.6-1.4c1.2,0,2.1,0.4,2.7,1.2c0.6,0.8,0.9,2.1,0.9,3.7V182.6z M195,181.6c0-1.2-0.2-2.1-0.6-2.7
				c-0.4-0.6-1-0.9-1.8-0.9c-0.9,0-1.5,0.4-1.9,1.3v5.6c0.4,0.8,1.1,1.2,2,1.2c0.8,0,1.4-0.3,1.8-0.9c0.4-0.6,0.6-1.5,0.6-2.7V181.6
				z"/>
			<path class="st0" d="M203.5,178.3c-0.2,0-0.5-0.1-0.8-0.1c-0.9,0-1.6,0.5-1.9,1.5v7.8H199v-10.8h1.7l0,1.1c0.5-0.9,1.2-1.3,2-1.3
				c0.3,0,0.5,0,0.7,0.1L203.5,178.3z"/>
			<path class="st0" d="M204.5,181.5c0-1.6,0.4-2.8,1.2-3.7c0.8-0.9,1.8-1.4,3.1-1.4c1.3,0,2.3,0.4,3.1,1.3c0.8,0.9,1.2,2.1,1.2,3.7
				v1.1c0,1.6-0.4,2.8-1.2,3.7c-0.8,0.9-1.8,1.4-3.1,1.4c-1.3,0-2.3-0.4-3-1.3c-0.8-0.9-1.2-2.1-1.2-3.6V181.5z M206.3,182.6
				c0,1.1,0.2,2,0.7,2.6c0.4,0.6,1,1,1.8,1c1.6,0,2.4-1.1,2.4-3.4v-1.2c0-1.1-0.2-2-0.7-2.6c-0.4-0.6-1-1-1.8-1
				c-0.7,0-1.3,0.3-1.8,1c-0.4,0.6-0.7,1.5-0.7,2.6V182.6z"/>
			<path class="st0" d="M216.9,176.6l0,1c0.7-0.8,1.5-1.2,2.6-1.2c1.2,0,2.1,0.5,2.6,1.6c0.7-1,1.6-1.6,2.9-1.6c2,0,3,1.2,3.1,3.7
				v7.3h-1.8v-7.1c0-0.8-0.1-1.4-0.4-1.8c-0.3-0.4-0.8-0.6-1.4-0.6c-0.5,0-1,0.2-1.3,0.6c-0.3,0.4-0.5,0.9-0.6,1.6v7.3h-1.8v-7.2
				c0-1.5-0.6-2.3-1.8-2.3c-0.9,0-1.5,0.4-1.9,1.3v8.1h-1.8v-10.8H216.9z"/>
			<path class="st0" d="M234.5,187.7c-1.4,0-2.4-0.4-3.1-1.2c-0.7-0.8-1.1-2-1.1-3.5v-1.3c0-1.6,0.4-2.9,1.1-3.8
				c0.7-0.9,1.7-1.4,3-1.4c1.3,0,2.2,0.4,2.9,1.2c0.6,0.8,1,2.1,1,3.8v1.2H232v0.3c0,1.2,0.2,2,0.7,2.5c0.4,0.5,1.1,0.8,1.9,0.8
				c0.5,0,1-0.1,1.4-0.3c0.4-0.2,0.8-0.5,1.1-0.9l0.9,1.1C237.3,187.1,236.1,187.7,234.5,187.7z M234.3,177.9
				c-0.7,0-1.3,0.3-1.6,0.8c-0.4,0.5-0.6,1.3-0.6,2.4h4.3v-0.2c0-1-0.2-1.8-0.6-2.2C235.5,178.2,235,177.9,234.3,177.9z"/>
			<path class="st0" d="M242.5,174v2.6h1.6v1.4h-1.6v6.7c0,0.4,0.1,0.8,0.2,1c0.1,0.2,0.4,0.3,0.7,0.3c0.2,0,0.5,0,0.7-0.1l0,1.5
				c-0.4,0.1-0.8,0.2-1.2,0.2c-0.7,0-1.2-0.3-1.6-0.8c-0.4-0.5-0.6-1.2-0.6-2.1v-6.7h-1.7v-1.4h1.7V174H242.5z"/>
			<path class="st0" d="M248.2,173.7c0,0.3-0.1,0.6-0.3,0.8c-0.2,0.2-0.4,0.3-0.8,0.3c-0.3,0-0.6-0.1-0.8-0.3
				c-0.2-0.2-0.3-0.5-0.3-0.8c0-0.3,0.1-0.6,0.3-0.8c0.2-0.2,0.4-0.3,0.8-0.3c0.3,0,0.6,0.1,0.8,0.3
				C248.1,173.2,248.2,173.5,248.2,173.7z M248.1,187.5h-1.8v-10.8h1.8V187.5z"/>
			<path class="st0" d="M250.4,181.6c0-1.7,0.3-2.9,0.9-3.8c0.6-0.9,1.5-1.3,2.7-1.3c1,0,1.9,0.4,2.4,1.3v-5.6h1.8v15.4h-1.6
				l-0.1-1.2c-0.6,0.9-1.4,1.4-2.5,1.4c-1.1,0-2-0.4-2.7-1.3c-0.6-0.9-1-2.1-1-3.7V181.6z M252.2,182.6c0,1.2,0.2,2.1,0.5,2.7
				c0.4,0.6,1,0.9,1.8,0.9c0.9,0,1.6-0.4,2-1.3v-5.5c-0.5-0.9-1.1-1.3-2-1.3c-0.8,0-1.4,0.3-1.8,0.9c-0.4,0.6-0.5,1.4-0.6,2.6V182.6
				z"/>
			<path class="st0" d="M260.5,181.5c0-1.6,0.4-2.8,1.2-3.7c0.8-0.9,1.8-1.4,3.1-1.4c1.3,0,2.3,0.4,3.1,1.3c0.8,0.9,1.2,2.1,1.2,3.7
				v1.1c0,1.6-0.4,2.8-1.1,3.7c-0.8,0.9-1.8,1.4-3.1,1.4c-1.3,0-2.3-0.4-3-1.3c-0.8-0.9-1.2-2.1-1.2-3.6V181.5z M262.3,182.6
				c0,1.1,0.2,2,0.7,2.6c0.4,0.6,1,1,1.8,1c1.6,0,2.4-1.1,2.4-3.4v-1.2c0-1.1-0.2-2-0.7-2.6c-0.4-0.6-1-1-1.8-1
				c-0.7,0-1.3,0.3-1.8,1c-0.4,0.6-0.7,1.5-0.7,2.6V182.6z"/>
			<path class="st0" d="M276.4,184.7c0-0.4-0.1-0.7-0.4-1c-0.3-0.3-0.8-0.6-1.7-1c-1-0.4-1.6-0.7-2-1c-0.4-0.3-0.7-0.6-0.9-1
				c-0.2-0.4-0.3-0.8-0.3-1.3c0-0.9,0.3-1.6,1-2.2c0.6-0.6,1.5-0.9,2.5-0.9c1.1,0,1.9,0.3,2.6,0.9c0.6,0.6,1,1.4,1,2.4h-1.8
				c0-0.5-0.2-0.9-0.5-1.2c-0.3-0.3-0.8-0.5-1.3-0.5c-0.5,0-0.9,0.1-1.2,0.4c-0.3,0.3-0.4,0.6-0.4,1.1c0,0.4,0.1,0.6,0.3,0.9
				c0.2,0.2,0.7,0.5,1.6,0.9c1.3,0.5,2.2,1,2.7,1.5c0.5,0.5,0.7,1.1,0.7,1.9c0,0.9-0.3,1.7-1,2.3c-0.7,0.6-1.5,0.8-2.6,0.8
				c-1.1,0-2.1-0.3-2.8-1c-0.7-0.6-1.1-1.5-1.1-2.5h1.8c0,0.6,0.2,1.1,0.6,1.4c0.3,0.3,0.8,0.5,1.5,0.5c0.6,0,1-0.1,1.4-0.4
				C276.3,185.5,276.4,185.1,276.4,184.7z"/>
			<path class="st0" d="M288.8,186.2c0.6,0,1.1-0.2,1.4-0.5c0.4-0.4,0.6-0.9,0.6-1.6h1.7c0,1-0.4,1.9-1.1,2.6c-0.7,0.7-1.6,1-2.6,1
				c-1.4,0-2.4-0.4-3.1-1.3c-0.7-0.8-1.1-2.1-1.1-3.8v-1.2c0-1.6,0.4-2.9,1.1-3.7c0.7-0.9,1.7-1.3,3.1-1.3c1.1,0,2,0.3,2.7,1.1
				c0.7,0.7,1,1.7,1,2.9h-1.7c0-0.8-0.2-1.4-0.6-1.8c-0.3-0.4-0.8-0.6-1.4-0.6c-0.8,0-1.4,0.3-1.8,0.8c-0.4,0.5-0.6,1.4-0.6,2.6v1.4
				c0,1.3,0.2,2.2,0.6,2.7C287.4,185.9,288,186.2,288.8,186.2z"/>
			<path class="st0" d="M294.1,181.5c0-1.6,0.4-2.8,1.2-3.7c0.8-0.9,1.8-1.4,3.1-1.4c1.3,0,2.3,0.4,3.1,1.3c0.8,0.9,1.2,2.1,1.2,3.7
				v1.1c0,1.6-0.4,2.8-1.1,3.7c-0.8,0.9-1.8,1.4-3.1,1.4c-1.3,0-2.3-0.4-3-1.3c-0.8-0.9-1.2-2.1-1.2-3.6V181.5z M295.9,182.6
				c0,1.1,0.2,2,0.7,2.6c0.4,0.6,1,1,1.8,1c1.6,0,2.4-1.1,2.4-3.4v-1.2c0-1.1-0.2-2-0.7-2.6c-0.4-0.6-1-1-1.8-1
				c-0.7,0-1.3,0.3-1.8,1c-0.4,0.6-0.7,1.5-0.7,2.6V182.6z"/>
			<path class="st0" d="M306.4,176.6l0.1,1.2c0.7-0.9,1.6-1.4,2.7-1.4c1.9,0,2.9,1.3,2.9,3.8v7.2h-1.8v-7.1c0-0.8-0.1-1.5-0.4-1.8
				c-0.3-0.4-0.7-0.5-1.3-0.5c-0.4,0-0.8,0.1-1.2,0.4c-0.4,0.3-0.6,0.7-0.9,1.2v7.9h-1.8v-10.8H306.4z"/>
			<path class="st0" d="M323.1,187.7c-1.4,0-2.4-0.4-3.1-1.2c-0.7-0.8-1.1-2-1.1-3.5v-1.3c0-1.6,0.4-2.9,1.1-3.8
				c0.7-0.9,1.7-1.4,3-1.4c1.3,0,2.2,0.4,2.9,1.2c0.6,0.8,1,2.1,1,3.8v1.2h-6.1v0.3c0,1.2,0.2,2,0.7,2.5c0.4,0.5,1.1,0.8,1.9,0.8
				c0.5,0,1-0.1,1.4-0.3c0.4-0.2,0.8-0.5,1.1-0.9l0.9,1.1C325.9,187.1,324.7,187.7,323.1,187.7z M322.9,177.9
				c-0.7,0-1.3,0.3-1.6,0.8c-0.4,0.5-0.6,1.3-0.6,2.4h4.3v-0.2c0-1-0.2-1.8-0.6-2.2C324,178.2,323.5,177.9,322.9,177.9z"/>
			<path class="st0" d="M330.7,187.5h-1.8v-15.4h1.8V187.5z"/>
			<path class="st0" d="M340.6,172.9l3.8,11.9l3.8-11.9h2.4v14.6h-1.8v-5.7l0.2-5.7l-3.8,11.4h-1.4l-3.8-11.3l0.2,5.7v5.7h-1.8
				v-14.6H340.6z"/>
			<path class="st0" d="M359.1,187.5c-0.1-0.2-0.2-0.6-0.2-1.2c-0.6,0.9-1.4,1.4-2.4,1.4c-1,0-1.8-0.3-2.3-0.8
				c-0.6-0.6-0.8-1.3-0.8-2.3c0-1.1,0.4-2,1.1-2.6c0.8-0.6,1.8-1,3.1-1h1.3v-1.2c0-0.6-0.1-1.1-0.4-1.4c-0.3-0.3-0.7-0.4-1.3-0.4
				c-0.5,0-1,0.2-1.3,0.5c-0.3,0.3-0.5,0.7-0.5,1.2h-1.8c0-0.6,0.2-1.1,0.5-1.6c0.3-0.5,0.8-0.9,1.3-1.2c0.6-0.3,1.2-0.4,1.9-0.4
				c1.1,0,2,0.3,2.5,0.8c0.6,0.6,0.9,1.4,0.9,2.4v5.5c0,0.8,0.1,1.6,0.3,2.2v0.2H359.1z M356.7,186.1c0.4,0,0.9-0.1,1.3-0.4
				c0.4-0.2,0.7-0.5,0.9-0.9v-2.6h-1c-0.8,0-1.5,0.2-2,0.6c-0.5,0.4-0.7,0.9-0.7,1.5c0,0.6,0.1,1.1,0.4,1.3
				C355.7,185.9,356.1,186.1,356.7,186.1z"/>
			<path class="st0" d="M367.7,178.3c-0.2,0-0.5-0.1-0.8-0.1c-0.9,0-1.6,0.5-1.9,1.5v7.8h-1.8v-10.8h1.7l0,1.1
				c0.5-0.9,1.2-1.3,2-1.3c0.3,0,0.5,0,0.7,0.1L367.7,178.3z"/>
			<path class="st0" d="M372.1,182.5l-0.9,1.1v3.9h-1.8v-15.4h1.8v9.2l3.4-4.7h2.1l-3.5,4.5l3.9,6.3h-2.1L372.1,182.5z"/>
			<path class="st0" d="M382.3,187.7c-1.4,0-2.4-0.4-3.1-1.2c-0.7-0.8-1.1-2-1.1-3.5v-1.3c0-1.6,0.4-2.9,1.1-3.8
				c0.7-0.9,1.7-1.4,3-1.4c1.3,0,2.2,0.4,2.9,1.2c0.6,0.8,1,2.1,1,3.8v1.2h-6.1v0.3c0,1.2,0.2,2,0.7,2.5c0.4,0.5,1.1,0.8,1.9,0.8
				c0.5,0,1-0.1,1.4-0.3c0.4-0.2,0.8-0.5,1.1-0.9l0.9,1.1C385,187.1,383.9,187.7,382.3,187.7z M382.1,177.9c-0.7,0-1.3,0.3-1.6,0.8
				c-0.4,0.5-0.6,1.3-0.6,2.4h4.3v-0.2c0-1-0.2-1.8-0.6-2.2C383.2,178.2,382.7,177.9,382.1,177.9z"/>
			<path class="st0" d="M390.3,174v2.6h1.6v1.4h-1.6v6.7c0,0.4,0.1,0.8,0.2,1c0.1,0.2,0.4,0.3,0.7,0.3c0.2,0,0.5,0,0.7-0.1l0,1.5
				c-0.4,0.1-0.8,0.2-1.2,0.2c-0.7,0-1.2-0.3-1.6-0.8c-0.4-0.5-0.6-1.2-0.6-2.1v-6.7h-1.7v-1.4h1.7V174H390.3z"/>
			<path class="st0" d="M396,173.7c0,0.3-0.1,0.6-0.3,0.8c-0.2,0.2-0.4,0.3-0.8,0.3c-0.3,0-0.6-0.1-0.8-0.3
				c-0.2-0.2-0.3-0.5-0.3-0.8c0-0.3,0.1-0.6,0.3-0.8c0.2-0.2,0.4-0.3,0.8-0.3c0.3,0,0.6,0.1,0.8,0.3
				C395.9,173.2,396,173.5,396,173.7z M395.8,187.5H394v-10.8h1.8V187.5z"/>
			<path class="st0" d="M400.2,176.6l0.1,1.2c0.7-0.9,1.6-1.4,2.7-1.4c1.9,0,2.9,1.3,2.9,3.8v7.2h-1.8v-7.1c0-0.8-0.1-1.5-0.4-1.8
				c-0.3-0.4-0.7-0.5-1.3-0.5c-0.4,0-0.8,0.1-1.2,0.4c-0.4,0.3-0.6,0.7-0.9,1.2v7.9h-1.8v-10.8H400.2z"/>
			<path class="st0" d="M408,181.6c0-1.7,0.3-3,0.9-3.8c0.6-0.9,1.5-1.3,2.7-1.3c1.1,0,2,0.5,2.5,1.4l0.1-1.2h1.6v10.9
				c0,1.3-0.3,2.4-1,3.1c-0.7,0.7-1.7,1.1-2.9,1.1c-0.5,0-1.1-0.1-1.8-0.4c-0.7-0.3-1.2-0.6-1.5-1l0.7-1.2c0.7,0.7,1.6,1.1,2.5,1.1
				c1.5,0,2.3-0.8,2.3-2.4v-1.4c-0.6,0.8-1.4,1.3-2.5,1.3c-1.1,0-2-0.4-2.6-1.3c-0.6-0.8-1-2.1-1-3.6V181.6z M409.8,182.6
				c0,1.2,0.2,2.1,0.5,2.7c0.4,0.6,1,0.9,1.8,0.9c0.9,0,1.6-0.5,2-1.4v-5.4c-0.5-0.9-1.1-1.3-2-1.3c-0.8,0-1.4,0.3-1.8,0.9
				c-0.4,0.6-0.5,1.4-0.6,2.6V182.6z"/>
		</g>
	</g>
</g>
</svg>
